<svg width="24" height="25" viewBox="0 0 24 25" fill="none" xmlns="http://www.w3.org/2000/svg">
<path d="M10.5 19.5C10.2348 19.5 9.98043 19.6054 9.79289 19.7929C9.60536 19.9804 9.5 20.2348 9.5 20.5C9.5 21.163 9.23661 21.7989 8.76777 22.2678C8.29893 22.7366 7.66304 23 7 23C6.68635 23.0245 6.37099 22.985 6.0731 22.8838C5.7752 22.7827 5.50099 22.622 5.26715 22.4115C5.0333 22.201 4.84471 21.9452 4.71283 21.6596C4.58094 21.374 4.50854 21.0645 4.5 20.75C4.5 20.4848 4.39464 20.2304 4.20711 20.0429C4.01957 19.8554 3.76522 19.75 3.5 19.75C3.23478 19.75 2.98043 19.8554 2.79289 20.0429C2.60536 20.2304 2.5 20.4848 2.5 20.75C2.50329 21.3285 2.62384 21.9004 2.85435 22.431C3.08487 22.9617 3.42058 23.44 3.84118 23.8373C4.26179 24.2345 4.75856 24.5424 5.30149 24.7422C5.84442 24.942 6.42223 25.0297 7 25C8.19266 24.9974 9.33572 24.5224 10.1791 23.6791C11.0224 22.8357 11.4974 21.6927 11.5 20.5C11.5 20.2348 11.3946 19.9804 11.2071 19.7929C11.0196 19.6054 10.7652 19.5 10.5 19.5ZM20.5 19.75C20.2348 19.75 19.9804 19.8554 19.7929 20.0429C19.6054 20.2304 19.5 20.4848 19.5 20.75C19.4915 21.0645 19.4191 21.374 19.2872 21.6596C19.1553 21.9452 18.9667 22.201 18.7329 22.4115C18.499 22.622 18.2248 22.7827 17.9269 22.8838C17.629 22.985 17.3136 23.0245 17 23C16.337 23 15.7011 22.7366 15.2322 22.2678C14.7634 21.7989 14.5 21.163 14.5 20.5C14.5 20.2348 14.3946 19.9804 14.2071 19.7929C14.0196 19.6054 13.7652 19.5 13.5 19.5C13.2348 19.5 12.9804 19.6054 12.7929 19.7929C12.6054 19.9804 12.5 20.2348 12.5 20.5C12.5026 21.6927 12.9776 22.8357 13.8209 23.6791C14.6643 24.5224 15.8073 24.9974 17 25C17.5778 25.0297 18.1556 24.942 18.6985 24.7422C19.2414 24.5424 19.7382 24.2345 20.1588 23.8373C20.5794 23.44 20.9151 22.9617 21.1456 22.431C21.3762 21.9004 21.4967 21.3285 21.5 20.75C21.5 20.4848 21.3946 20.2304 21.2071 20.0429C21.0196 19.8554 20.7652 19.75 20.5 19.75Z" fill="black"/>
<path d="M20.5 12C19.837 12 19.2011 12.2634 18.7322 12.7322C18.2634 13.2011 18 13.837 18 14.5V17C18 17.2652 17.8946 17.5196 17.7071 17.7071C17.5196 17.8946 17.2652 18 17 18C16.7348 18 16.4804 17.8946 16.2929 17.7071C16.1054 17.5196 16 17.2652 16 17V10.49C16 10.3574 16.0527 10.2302 16.1464 10.1364C16.2402 10.0427 16.3674 9.99 16.5 9.99H18.39C18.5841 9.99153 18.7744 9.93657 18.9377 9.8318C19.1011 9.72704 19.2304 9.57701 19.31 9.4C19.3896 9.22291 19.4158 9.02649 19.3857 8.83471C19.3555 8.64293 19.2701 8.46409 19.14 8.32L12.74 1.32C12.6462 1.21359 12.5307 1.12837 12.4014 1.07C12.2721 1.01163 12.1319 0.981438 11.99 0.981438C11.8481 0.981438 11.7079 1.01163 11.5786 1.07C11.4493 1.12837 11.3338 1.21359 11.24 1.32C10.67 1.97 5.66 7.41 4.85 8.32C4.72153 8.46514 4.63801 8.6445 4.6096 8.83624C4.5812 9.02798 4.60913 9.22384 4.69 9.4C4.76807 9.57888 4.89677 9.731 5.06025 9.83762C5.22373 9.94423 5.41483 10.0007 5.61 10H7.5C7.63261 10 7.75979 10.0527 7.85355 10.1464C7.94732 10.2402 8 10.3674 8 10.5V17C8 17.2652 7.89464 17.5196 7.70711 17.7071C7.51957 17.8946 7.26522 18 7 18C6.73478 18 6.48043 17.8946 6.29289 17.7071C6.10536 17.5196 6 17.2652 6 17V14.5C6 13.837 5.73661 13.2011 5.26777 12.7322C4.79893 12.2634 4.16304 12 3.5 12C2.83696 12 2.20107 12.2634 1.73223 12.7322C1.26339 13.2011 1 13.837 1 14.5V16.5C1 16.7652 1.10536 17.0196 1.29289 17.2071C1.48043 17.3946 1.73478 17.5 2 17.5C2.26522 17.5 2.51957 17.3946 2.70711 17.2071C2.89464 17.0196 3 16.7652 3 16.5V14.5C3 14.3674 3.05268 14.2402 3.14645 14.1464C3.24021 14.0527 3.36739 14 3.5 14C3.63261 14 3.75979 14.0527 3.85355 14.1464C3.94732 14.2402 4 14.3674 4 14.5V17C4 17.7956 4.31607 18.5587 4.87868 19.1213C5.44129 19.6839 6.20435 20 7 20C7.79565 20 8.55871 19.6839 9.12132 19.1213C9.68393 18.5587 10 17.7956 10 17C10 16.8674 10.0527 16.7402 10.1464 16.6464C10.2402 16.5527 10.3674 16.5 10.5 16.5H13.5C13.6326 16.5 13.7598 16.5527 13.8536 16.6464C13.9473 16.7402 14 16.8674 14 17C14 17.7956 14.3161 18.5587 14.8787 19.1213C15.4413 19.6839 16.2044 20 17 20C17.7956 20 18.5587 19.6839 19.1213 19.1213C19.6839 18.5587 20 17.7956 20 17V14.5C20 14.3674 20.0527 14.2402 20.1464 14.1464C20.2402 14.0527 20.3674 14 20.5 14C20.6326 14 20.7598 14.0527 20.8536 14.1464C20.9473 14.2402 21 14.3674 21 14.5V16.5C21 16.7652 21.1054 17.0196 21.2929 17.2071C21.4804 17.3946 21.7348 17.5 22 17.5C22.2652 17.5 22.5196 17.3946 22.7071 17.2071C22.8946 17.0196 23 16.7652 23 16.5V14.5C23 13.837 22.7366 13.2011 22.2678 12.7322C21.7989 12.2634 21.163 12 20.5 12Z" fill="black"/>
</svg>
